# AST/ASF file generated using VICON BodyLanguage
# -----------------------------------------------
:version 1.10
:name VICON
:units
  mass 1.0
  length 0.45
  angle deg
:documentation
   .ast/.asf automatically generated from VICON data using
   VICON BodyBuilder and BodyLanguage model FoxedUp or BRILLIANT.MOD
:root
   order TX TY TZ RX RY RZ
   axis XYZ
   position 0 0 0  
   orientation 0 0 0 
:bonedata
  begin
     id 1 
     name lhipjoint
     direction 0.584852 -0.759097 0.285867 
     length 2.43633 
     axis 0 0 0  XYZ
  end
  begin
     id 2 
     name lfemur
     direction 0.34202 -0.939693 0  
     length 7.14704  
     axis 0 0 20  XYZ
    dof rx ry rz
    limits (-160.0 20.0)
           (-70.0 70.0)
           (-60.0 70.0)
  end
  begin
     id 3 
     name ltibia
     direction 0.342022 -0.939692 0   
     length 7.68483   
     axis 0 0 20   XYZ
    dof rx
    limits (-10.0 170.0)
  end
  begin
     id 4 
     name lfoot
     direction 0.0999605 -0.274639 0.956337   
     length 2.40452   
     axis -90 7.62852e-016 20   XYZ
    dof rx rz
    limits (-45.0 90.0)
           (-70.0 20.0)
  end
  begin
     id 5 
     name ltoes
     direction 1.53468e-011 -4.21881e-011 1   
     length 1.19837   
     axis -90 7.62852e-016 20   XYZ
    dof rx
    limits (-90.0 20.0)
  end
  begin
     id 6 
     name rhipjoint
     direction -0.569886 -0.769002 0.289597   
     length 2.40495  
     axis 0 0 0  XYZ 
  end
  begin
     id 7 
     name rfemur
     direction -0.34202 -0.939693 0   
     length 7.45086   
     axis 0 0 -20   XYZ
    dof rx ry rz
    limits (-160.0 20.0)
           (-70.0 70.0)
           (-70.0 60.0)
  end
  begin
     id 8 
     name rtibia
     direction -0.34202 -0.939693 0   
     length 7.76831   
     axis 0 0 -20   XYZ
    dof rx
    limits (-10.0 170.0)
 end
 begin
     id 9 
     name rfoot
     direction -0.0798572 -0.219406 0.97236   
     length 2.35911  
     axis -90 -7.62852e-016 -20   XYZ
    dof rx rz
    limits (-45.0 90.0)
           (-20.0 70.0)
  end
  begin
     id 10 
     name rtoes
     direction -1.53469e-011 -4.21728e-011 1   
     length 1.18261   
     axis -90 -7.62852e-016 -20   XYZ
    dof rx
    limits (-90.0 20.0)
  end
  begin
     id 11 
     name lowerback
     direction 0.0242088 0.999437 0.0232389   
     length 2.1561   
     axis 0 0 0   XYZ
    dof rx ry rz
    limits (-20.0 45.0)
           (-30.0 30.0)
           (-30.0 30.0)
  end
  begin
     id 12 
     name upperback
     direction -0.0356893 0.999013 -0.0264323   
     length 2.14431   
     axis 0 0 0   XYZ
    dof rx ry rz
    limits (-20.0 45.0)
           (-30.0 30.0)
           (-30.0 30.0)
  end
  begin
     id 13 
     name thorax
     direction -0.0472163 0.998194 -0.0371284   
     length 2.16169   
     axis 0 0 0   XYZ
    dof rx ry rz
    limits (-20.0 45.0)
           (-30.0 30.0)
           (-30.0 30.0)
  end
  begin
     id 14 
     name lowerneck
     direction 0.00863244 0.999921 0.00911972   
     length 1.58651   
     axis 0 0 0   XYZ
    dof rx ry rz
    limits (-20.0 45.0)
           (-30.0 30.0)
           (-30.0 30.0)
  end
  begin
     id 15 
     name upperneck
     direction 0.149523 0.979068 -0.138086   
     length 1.57486   
     axis 0 0 0   XYZ
    dof rx ry rz
    limits (-20.0 45.0)
           (-30.0 30.0)
           (-30.0 30.0)
  end
  begin
     id 16
     name head
     direction 0.0445219 0.997708 -0.0509576  
     length 1.6019  
     axis 0 0 0   XYZ
    dof rx ry rz
    limits (-20.0 45.0)
           (-30.0 30.0)
           (-30.0 30.0)
  end
  begin
     id 17 
     name lclavicle
     direction 0.911271 0.381667 -0.154644  
     length 3.80848  
     axis 0 0 0   XYZ
    dof ry rz
    limits (-20.0 10.0)
           (0.0 20.0)
  end
  begin
     id 18 
     name lhumerus
     direction 1 -4.49003e-011 2.1308e-027   
     length 5.19069   
     axis 180 -30 -90   XYZ
    dof rx ry rz
    limits (-60.0 90.0)
           (-90.0 90.0)
           (-90.0 90.0)
  end
  begin
     id 19
     name lradius
     direction 1 -4.48914e-011 4.01554e-027   
     length 3.30016   
     axis 180 -30 -90   XYZ
    dof rx
    limits (-10.0 170.0)
  end
  begin
     id 20
     name lwrist
     direction 1 -4.49003e-011 1.1934e-026   
     length 1.65008   
     axis -8.46377e-015 90 90   XYZ
    dof ry
    limits (-180.0 0.0)
 end
  begin
     id 21 
     name lhand
     direction 1 -4.49034e-011 2.38659e-026   
     length 0.707698   
     axis -1.52313e-014 90 90   XYZ
    dof rx rz
    limits (-90.0 90.0)
           (-45.0 45.0)
  end
  begin
     id 22 
     name lfingers
     direction 1 -4.48691e-011 4.77775e-026   
     length 0.570564   
     axis -3.04623e-014 90 90   XYZ
    dof rx
    limits (0.0 90.0)
  end
  begin
     id 23
     name lthumb
     direction 0.707107 -6.34832e-011 0.707107   
     length 0.819219   
     axis -90 45 -1.62303e-014   XYZ
    dof rx rz
    limits (-45.0 45.0)
           (-45.0 45.0)
  end
  begin
     id 24 
     name rclavicle
     direction -0.815579 0.573708 -0.0754329   
     length 3.54371  
     axis 0 0 0   XYZ 
    dof ry rz
    limits (-10.0 20.0)
           (-20.0 0.0)
  end
  begin
     id 25 
     name rhumerus
     direction -1 -4.48956e-011 3.05351e-028  
     length 5.23924   
     axis 180 30 90   XYZ
    dof rx ry rz
    limits (-90.0 60.0)
           (-90.0 90.0)
           (-90.0 90.0)
  end
  begin
     id 26 
     name rradius
     direction -1 -4.49013e-011 3.53849e-027   
     length 3.32953   
     axis 180 30 90   XYZ
    dof rx
    limits (-10.0 170.0)
  end
  begin
     id 27 
     name rwrist
     direction -1 -4.48901e-011 1.19374e-026   
     length 1.66477   
     axis -8.46377e-015 -90 -90   XYZ
    dof ry
    limits (-180.0 0.0)
  end
  begin
     id 28
     name rhand
     direction -1 -4.48877e-011 2.38764e-026   
     length 0.607414   
     axis -1.52313e-014 -90 -90   XYZ
    dof rx rz
    limits (-90.0 90.0)
           (-45.0 45.0)
  end
  begin
     id 29
     name rfingers
     direction -1 -4.48882e-011 4.77521e-026   
     length 0.489712   
     axis -3.04623e-014 -90 -90   XYZ
    dof rx
    limits (0.0 90.0)
  end
  begin
     id 30
     name rthumb
     direction -0.707107 -6.34974e-011 0.707107   
     length 0.703132   
     axis -90 -45 1.62303e-014   XYZ
    dof rx rz
    limits (-45.0 45.0)
           (-45.0 45.0)
  end
:hierarchy
  begin
    root lhipjoint rhipjoint lowerback
    lhipjoint lfemur
    lfemur ltibia
    ltibia lfoot
    lfoot ltoes
    rhipjoint rfemur
    rfemur rtibia
    rtibia rfoot
    rfoot rtoes
    lowerback upperback
    upperback thorax
    thorax lowerneck lclavicle rclavicle
    lowerneck upperneck
    upperneck head
    lclavicle lhumerus
    lhumerus lradius
    lradius lwrist
    lwrist lhand lthumb
    lhand lfingers
    rclavicle rhumerus
    rhumerus rradius
    rradius rwrist
    rwrist rhand rthumb
    rhand rfingers
  end

#!OML:ASF E:\VariousWalksJay\Project 1\Capture day 1\Session 1\Actor2.ASF
:FULLY-SPECIFIED
:DEGREES
383
root 7.1712 16.4712 18.4626 -5.26875 -23.7667 2.12189
lowerback 14.3841 -5.40131 11.9023
upperback 10.9584 -6.07577 2.07682
thorax 2.86898 -2.55431 -3.66145
lowerneck 7.57063 -6.76905 -5.88018
upperneck -9.07942 -9.0923 7.17939
head -3.32282 -4.68979 3.54332
rclavicle 7.95139e-016 -4.29375e-014
rhumerus -73.4727 22.9809 -126.46
rradius 66.0754
rwrist 10.7971
rhand -6.80084 6.37537
rfingers 7.12502
rthumb 19.0624 -22.7105
lclavicle 7.95139e-016 -4.29375e-014
lhumerus -74.3138 -29.6567 139.862
lradius 62.2867
lwrist 5.67202
lhand 8.84996 -6.01804
lfingers 7.12502
lthumb 34.0348 20.758
rfemur -17.3189 -8.00992 25.2261
rtibia 48.7884
rfoot -30.8601 -17.9572
rtoes 11.4793
lfemur -56.5186 7.63776 -20.9362
ltibia 43.9474
lfoot -25.1685 2.26111
ltoes -23.6862
384
root 7.18063 16.462 18.5321 -5.41791 -24.4232 3.17531
lowerback 14.2996 -5.24099 10.5962
upperback 10.8411 -6.00351 1.77561
thorax 2.83755 -2.58372 -3.28549
lowerneck 7.52011 -6.8372 -6.00907
upperneck -9.02892 -9.15637 7.63113
head -3.26585 -4.74035 3.69631
rclavicle -3.97569e-014 3.65764e-014
rhumerus -73.5476 23.0778 -126.466
rradius 66.0731
rwrist 10.908
rhand -6.74674 6.40768
rfingers 7.12502
rthumb 19.1144 -22.6731
lclavicle -3.97569e-014 3.65764e-014
lhumerus -74.1896 -29.4038 139.724
lradius 62.2648
lwrist 5.66447
lhand 8.65082 -6.07298
lfingers 7.12502
lthumb 33.8456 20.7449
rfemur -17.7489 -7.72032 24.0695
rtibia 49.4648
rfoot -31.1747 -17.4975
rtoes 11.0137
lfemur -55.3819 7.17352 -21.6989
ltibia 46.0188
lfoot -24.8939 0.722168
ltoes -23.737
385
root 7.19023 16.4501 18.6019 -5.62483 -25.2227 4.22584
lowerback 14.2603 -5.05644 9.27882
upperback 10.7432 -5.89664 1.45806
thorax 2.812 -2.59466 -2.91822
lowerneck 7.4778 -6.89465 -6.12896
upperneck -9.00725 -9.20337 8.10745
head -3.21888 -4.78401 3.8561
rclavicle 1.66979e-014 -1.11319e-014
rhumerus -73.5965 23.1839 -126.476
rradius 66.0519
rwrist 11.1227
rhand -6.78547 6.53735
rfingers 7.12502
rthumb 19.0771 -22.5471
lclavicle 1.66979e-014 -1.11319e-014
lhumerus -74.0481 -29.1535 139.556
lradius 62.245
lwrist 5.67355
lhand 8.44964 -6.13179
lfingers 7.12502
lthumb 33.6544 20.728
rfemur -18.1678 -7.40623 22.9242
rtibia 50.1556
rfoot -31.4565 -16.9989
rtoes 10.4628
lfemur -54.16 6.76188 -22.4278
ltibia 47.9958
lfoot -24.6337 -0.756269
ltoes -23.7325
386
root 7.20034 16.4342 18.6725 -5.75926 -26.1947 5.02915
lowerback 14.2416 -4.86508 8.18882
upperback 10.6578 -5.75747 1.17966
thorax 2.78531 -2.57817 -2.63322
lowerneck 7.44117 -6.93299 -6.24997
upperneck -9.00684 -9.22348 8.60402
head -3.17984 -4.81541 4.02252
rclavicle -4.69132e-014 4.92986e-014
rhumerus -73.6062 23.2901 -126.471
rradius 66.0519
rwrist 11.2962
rhand -6.66576 6.65204
rfingers 7.12502
rthumb 19.1923 -22.421
lclavicle -4.69132e-014 4.92986e-014
lhumerus -73.8909 -28.9089 139.365
lradius 62.2261
lwrist 5.68334
lhand 8.24194 -6.19967
lfingers 7.12502
lthumb 33.457 20.703
rfemur -18.5822 -7.03791 22.0515
rtibia 50.8016
rfoot -31.6784 -16.5071
rtoes 9.83278
lfemur -52.9285 6.41589 -22.8789
ltibia 49.8815
lfoot -24.4088 -2.17296
ltoes -23.6593
387
root 7.21122 16.4145 18.7446 -5.68786 -27.3541 5.36808
lowerback 14.2154 -4.68307 7.53925
upperback 10.5781 -5.58803 0.986269
thorax 2.75186 -2.52608 -2.50243
lowerneck 7.40223 -6.9508 -6.36034
upperneck -9.01696 -9.21464 9.10624
head -3.14591 -4.83307 4.18876
rclavicle 1.04958e-013 -6.99722e-014
rhumerus -73.5707 23.3728 -126.439
rradius 66.0454
rwrist 11.5249
rhand -6.48638 6.81988
rfingers 7.12502
rthumb 19.3647 -22.2359
lclavicle 1.04958e-013 -6.99722e-014
lhumerus -73.7284 -28.6744 139.15
lradius 62.2097
lwrist 5.69286
lhand 8.02393 -6.27598
lfingers 7.12502
lthumb 33.2498 20.6712
rfemur -18.9965 -6.59298 21.6741
rtibia 51.3545
rfoot -31.8306 -16.0687
rtoes 9.11731
lfemur -51.7452 6.13309 -22.8455
ltibia 51.655
lfoot -24.2537 -3.50318
ltoes -23.5905
388
root 7.22281 16.3913 18.8178 -5.32383 -28.6945 5.1618
lowerback 14.1612 -4.52123 7.3893
upperback 10.4949 -5.39727 0.894997
thorax 2.70837 -2.44097 -2.54239
lowerneck 7.35678 -6.93744 -6.45426
upperneck -9.02776 -9.16288 9.60378
head -3.11567 -4.82965 4.35014
rclavicle 6.91771e-014 0
rhumerus -73.4942 23.4344 -126.385
rradius 66.0058
rwrist 11.8607
rhand -6.32148 7.10998
rfingers 7.12502
rthumb 19.5233 -21.9298
lclavicle 6.91771e-014 0
lhumerus -73.5429 -28.4308 138.897
lradius 62.187
lwrist 5.69306
lhand 7.792 -6.35966
lfingers 7.12502
lthumb 33.0292 20.6344
rfemur -19.4226 -6.05953 21.8634
rtibia 51.7857
rfoot -31.903 -15.7043
rtoes 8.32964
lfemur -50.6428 5.90525 -22.2668
ltibia 53.2739
lfoot -24.1828 -4.75679
ltoes -23.5719
389
root 7.23468 16.3656 18.8921 -4.66843 -30.1628 4.51132
lowerback 14.058 -4.37847 7.63215
upperback 10.4026 -5.19602 0.881374
thorax 2.66549 -2.33315 -2.72113
lowerneck 7.29776 -6.88762 -6.53544
upperneck -9.02921 -9.06202 10.0921
head -3.08595 -4.80148 4.50519
rclavicle -3.29983e-014 4.77083e-014
rhumerus -73.375 23.4659 -126.302
rradius 65.9127
rwrist 12.3717
rhand -6.2511 7.54645
rfingers 7.12502
rthumb 19.591 -21.4865
lclavicle -3.29983e-014 4.77083e-014
lhumerus -73.344 -28.1899 138.615
lradius 62.1564
lwrist 5.6915
lhand 7.54622 -6.45312
lfingers 7.12502
lthumb 32.7955 20.59
rfemur -19.8772 -5.47018 22.4901
rtibia 52.1072
rfoot -31.9041 -15.3819
rtoes 7.51819
lfemur -49.6099 5.6949 -21.2723
ltibia 54.6541
lfoot -24.1835 -5.95296
ltoes -23.5745
390
root 7.2459 16.3378 18.9673 -3.63531 -31.687 3.4071
lowerback 13.8534 -4.26495 8.25477
upperback 10.2848 -5.00373 0.94635
thorax 2.63577 -2.21317 -3.03098
lowerneck 7.21843 -6.79888 -6.59376
upperneck -9.01743 -8.90807 10.5658
head -3.05601 -4.74641 4.65033
rclavicle 5.32743e-014 -2.78299e-014
rhumerus -73.2157 23.4632 -126.196
rradius 65.7425
rwrist 13.1417
rhand -6.39227 8.15356
rfingers 7.12502
rthumb 19.4552 -20.8931
lclavicle 5.32743e-014 -2.78299e-014
lhumerus -73.1436 -27.9632 138.316
lradius 62.113
lwrist 5.69028
lhand 7.2829 -6.55718
lfingers 7.12502
lthumb 32.5449 20.538
rfemur -20.4202 -4.86521 23.5343
rtibia 52.3489
rfoot -31.8533 -15.0844
rtoes 6.7124
lfemur -48.693 5.4597 -19.8895
ltibia 55.7205
lfoot -24.2364 -7.12231
ltoes -23.5653
391
root 7.25616 16.309 19.0426 -2.441 -33.2066 2.20928
lowerback 13.5863 -4.15974 8.91691
upperback 10.1506 -4.82577 1.01242
thorax 2.6227 -2.09855 -3.36259
lowerneck 7.12244 -6.67176 -6.63127
upperneck -8.99223 -8.70237 11.0237
head -3.0266 -4.66494 4.78584
rclavicle -6.36111e-014 -6.36111e-015
rhumerus -73.0301 23.4242 -126.068
rradius 65.4653
rwrist 14.2668
rhand -6.94775 9.17922
rfingers 7.12502
rthumb 18.9211 -19.9205
lclavicle -6.36111e-014 -6.36111e-015
lhumerus -72.9669 -27.76 138.033
lradius 62.0447
lwrist 5.63677
lhand 6.97935 -6.67721
lfingers 7.12502
lthumb 32.256 20.4771
rfemur -21.0232 -4.28694 24.615
rtibia 52.5666
rfoot -31.7781 -14.7402
rtoes 5.93127
lfemur -47.7908 5.15488 -18.4763
ltibia 56.3965
lfoot -24.3247 -8.24037
ltoes -23.6092
